<svg id="Camada_1" data-name="Camada 1" xmlns="http://www.w3.org/2000/svg" viewBox="0 0 1080 1080"><defs><style>.cls-1{opacity:0.08;}.cls-2{fill:none;stroke:#fff;stroke-miterlimit:10;stroke-width:3px;}</style></defs><g class="cls-1"><path class="cls-2" d="M-41.06,64A29.19,29.19,0,0,1-31,23.92,29.19,29.19,0,0,1,9,34"/><path class="cls-2" d="M-7.41,43.81,9,34A29.18,29.18,0,0,1-1,74,29.18,29.18,0,0,1-41.06,64l16.64-10"/><path class="cls-2" d="M78.94,64A29.18,29.18,0,1,1,129,34"/><path class="cls-2" d="M112.59,43.81,129,34A29.18,29.18,0,0,1,78.94,64L95.58,54"/><circle class="cls-2" cx="103.98" cy="48.97" r="9.36"/><circle class="cls-2" cx="103.98" cy="48.97" r="4.68"/><path class="cls-2" d="M198.94,64A29.18,29.18,0,1,1,249,34"/><path class="cls-2" d="M232.59,43.81,249,34a29.18,29.18,0,0,1-50.08,30l16.64-10"/><circle class="cls-2" cx="223.98" cy="48.97" r="9.36"/><circle class="cls-2" cx="223.98" cy="48.97" r="4.68"/><path class="cls-2" d="M318.94,64A29.18,29.18,0,1,1,369,34"/><path class="cls-2" d="M352.59,43.81,369,34a29.18,29.18,0,1,1-50.08,30l16.64-10"/><circle class="cls-2" cx="343.98" cy="48.97" r="9.36"/><circle class="cls-2" cx="343.98" cy="48.97" r="4.68"/><path class="cls-2" d="M438.94,64A29.18,29.18,0,1,1,489,34"/><path class="cls-2" d="M472.59,43.81,489,34a29.18,29.18,0,1,1-50.08,30l16.64-10"/><circle class="cls-2" cx="463.98" cy="48.97" r="9.36"/><circle class="cls-2" cx="463.98" cy="48.97" r="4.68"/><path class="cls-2" d="M558.94,64A29.18,29.18,0,1,1,609,34"/><path class="cls-2" d="M592.59,43.81,609,34a29.18,29.18,0,1,1-50.08,30l16.64-10"/><circle class="cls-2" cx="583.98" cy="48.97" r="9.36"/><circle class="cls-2" cx="583.98" cy="48.97" r="4.68"/><path class="cls-2" d="M678.94,64A29.18,29.18,0,1,1,729,34"/><path class="cls-2" d="M712.59,43.81,729,34a29.18,29.18,0,1,1-50.08,30l16.64-10"/><circle class="cls-2" cx="703.98" cy="48.97" r="9.36"/><circle class="cls-2" cx="703.98" cy="48.97" r="4.68"/><path class="cls-2" d="M798.94,64A29.18,29.18,0,1,1,849,34"/><path class="cls-2" d="M832.59,43.81,849,34a29.18,29.18,0,1,1-50.08,30l16.64-10"/><circle class="cls-2" cx="823.98" cy="48.97" r="9.36"/><circle class="cls-2" cx="823.98" cy="48.97" r="4.68"/><path class="cls-2" d="M10.11,162.25a29.18,29.18,0,1,1,50.08-30"/><path class="cls-2" d="M43.77,142.11l16.42-9.84a29.18,29.18,0,1,1-50.08,30l16.64-10"/><circle class="cls-2" cx="35.15" cy="147.26" r="9.36"/><circle class="cls-2" cx="35.15" cy="147.26" r="4.68"/><path class="cls-2" d="M130.11,162.25a29.18,29.18,0,0,1,50.08-30"/><path class="cls-2" d="M163.77,142.11l16.42-9.84a29.18,29.18,0,1,1-50.08,30l16.64-10"/><circle class="cls-2" cx="155.15" cy="147.26" r="9.36"/><circle class="cls-2" cx="155.15" cy="147.26" r="4.68"/><path class="cls-2" d="M250.11,162.25a29.18,29.18,0,0,1,50.08-30"/><path class="cls-2" d="M283.77,142.11l16.42-9.84a29.18,29.18,0,1,1-50.08,30l16.64-10"/><circle class="cls-2" cx="275.15" cy="147.26" r="9.36"/><circle class="cls-2" cx="275.15" cy="147.26" r="4.68"/><path class="cls-2" d="M370.11,162.25a29.18,29.18,0,0,1,50.08-30"/><path class="cls-2" d="M403.77,142.11l16.42-9.84a29.18,29.18,0,1,1-50.08,30l16.64-10"/><circle class="cls-2" cx="395.15" cy="147.26" r="9.36"/><circle class="cls-2" cx="395.15" cy="147.26" r="4.68"/><path class="cls-2" d="M490.11,162.25a29.18,29.18,0,0,1,50.08-30"/><path class="cls-2" d="M523.77,142.11l16.42-9.84a29.18,29.18,0,1,1-50.08,30l16.64-10"/><circle class="cls-2" cx="515.15" cy="147.26" r="9.36"/><circle class="cls-2" cx="515.15" cy="147.26" r="4.68"/><path class="cls-2" d="M610.11,162.25a29.18,29.18,0,0,1,50.08-30"/><path class="cls-2" d="M643.77,142.11l16.42-9.84a29.18,29.18,0,1,1-50.08,30l16.64-10"/><circle class="cls-2" cx="635.15" cy="147.26" r="9.36"/><circle class="cls-2" cx="635.15" cy="147.26" r="4.68"/><path class="cls-2" d="M730.11,162.25a29.18,29.18,0,0,1,50.08-30"/><path class="cls-2" d="M763.77,142.11l16.42-9.84a29.18,29.18,0,1,1-50.08,30l16.64-10"/><circle class="cls-2" cx="755.15" cy="147.26" r="9.36"/><circle class="cls-2" cx="755.15" cy="147.26" r="4.68"/><path class="cls-2" d="M61.28,260.55a29.18,29.18,0,1,1,50.08-30"/><path class="cls-2" d="M94.94,240.4l16.42-9.83a29.18,29.18,0,1,1-50.08,30l16.64-10"/><circle class="cls-2" cx="86.32" cy="245.56" r="9.36"/><circle class="cls-2" cx="86.32" cy="245.56" r="4.68"/><path class="cls-2" d="M181.28,260.55a29.18,29.18,0,0,1,50.08-30"/><path class="cls-2" d="M214.94,240.4l16.42-9.83a29.18,29.18,0,1,1-50.08,30l16.64-10"/><circle class="cls-2" cx="206.32" cy="245.56" r="9.36"/><circle class="cls-2" cx="206.32" cy="245.56" r="4.68"/><path class="cls-2" d="M301.28,260.55a29.18,29.18,0,0,1,50.08-30"/><path class="cls-2" d="M334.94,240.4l16.42-9.83a29.18,29.18,0,1,1-50.08,30l16.64-10"/><circle class="cls-2" cx="326.32" cy="245.56" r="9.36"/><circle class="cls-2" cx="326.32" cy="245.56" r="4.68"/><path class="cls-2" d="M421.28,260.55a29.18,29.18,0,0,1,50.08-30"/><path class="cls-2" d="M454.94,240.4l16.42-9.83a29.18,29.18,0,1,1-50.08,30l16.64-10"/><circle class="cls-2" cx="446.32" cy="245.56" r="9.36"/><circle class="cls-2" cx="446.32" cy="245.56" r="4.68"/><path class="cls-2" d="M541.28,260.55a29.18,29.18,0,0,1,50.08-30"/><path class="cls-2" d="M574.94,240.4l16.42-9.83a29.18,29.18,0,1,1-50.08,30l16.64-10"/><circle class="cls-2" cx="566.32" cy="245.56" r="9.36"/><circle class="cls-2" cx="566.32" cy="245.56" r="4.68"/><path class="cls-2" d="M661.28,260.55a29.18,29.18,0,0,1,50.08-30"/><path class="cls-2" d="M694.94,240.4l16.42-9.83a29.18,29.18,0,1,1-50.08,30l16.64-10"/><circle class="cls-2" cx="686.32" cy="245.56" r="9.36"/><circle class="cls-2" cx="686.32" cy="245.56" r="4.68"/><path class="cls-2" d="M-7.55,358.85a29.18,29.18,0,1,1,50.08-30"/><path class="cls-2" d="M26.11,338.7l16.42-9.83a29.18,29.18,0,0,1-50.08,30l16.64-10"/><circle class="cls-2" cx="17.49" cy="343.86" r="9.36"/><circle class="cls-2" cx="17.49" cy="343.86" r="4.68"/><path class="cls-2" d="M112.45,358.85a29.18,29.18,0,0,1,50.08-30"/><path class="cls-2" d="M146.11,338.7l16.42-9.83a29.18,29.18,0,0,1-50.08,30l16.64-10"/><circle class="cls-2" cx="137.49" cy="343.86" r="9.36"/><circle class="cls-2" cx="137.49" cy="343.86" r="4.68"/><path class="cls-2" d="M232.45,358.85a29.18,29.18,0,0,1,50.08-30"/><path class="cls-2" d="M266.11,338.7l16.42-9.83a29.18,29.18,0,1,1-50.08,30l16.64-10"/><circle class="cls-2" cx="257.49" cy="343.86" r="9.36"/><circle class="cls-2" cx="257.49" cy="343.86" r="4.68"/><path class="cls-2" d="M352.45,358.85a29.18,29.18,0,0,1,50.08-30"/><path class="cls-2" d="M386.11,338.7l16.42-9.83a29.18,29.18,0,1,1-50.08,30l16.64-10"/><circle class="cls-2" cx="377.49" cy="343.86" r="9.36"/><circle class="cls-2" cx="377.49" cy="343.86" r="4.68"/><path class="cls-2" d="M472.45,358.85a29.18,29.18,0,0,1,50.08-30"/><path class="cls-2" d="M506.11,338.7l16.42-9.83a29.18,29.18,0,1,1-50.08,30l16.64-10"/><circle class="cls-2" cx="497.49" cy="343.86" r="9.36"/><circle class="cls-2" cx="497.49" cy="343.86" r="4.68"/><path class="cls-2" d="M592.45,358.85a29.18,29.18,0,0,1,50.08-30"/><path class="cls-2" d="M626.11,338.7l16.42-9.83a29.18,29.18,0,1,1-50.08,30l16.64-10"/><circle class="cls-2" cx="617.49" cy="343.86" r="9.36"/><circle class="cls-2" cx="617.49" cy="343.86" r="4.68"/><path class="cls-2" d="M43.62,457.15a29.18,29.18,0,0,1,50.08-30"/><path class="cls-2" d="M77.28,437l16.42-9.83a29.18,29.18,0,1,1-50.08,30l16.64-10"/><circle class="cls-2" cx="68.66" cy="442.16" r="9.36"/><circle class="cls-2" cx="68.66" cy="442.16" r="4.68"/><path class="cls-2" d="M163.62,457.15a29.18,29.18,0,0,1,50.08-30"/><path class="cls-2" d="M197.28,437l16.42-9.83a29.18,29.18,0,1,1-50.08,30l16.64-10"/><circle class="cls-2" cx="188.66" cy="442.16" r="9.36"/><circle class="cls-2" cx="188.66" cy="442.16" r="4.68"/><path class="cls-2" d="M283.62,457.15a29.18,29.18,0,0,1,50.08-30"/><path class="cls-2" d="M317.28,437l16.42-9.83a29.18,29.18,0,1,1-50.08,30l16.64-10"/><circle class="cls-2" cx="308.66" cy="442.16" r="9.36"/><circle class="cls-2" cx="308.66" cy="442.16" r="4.68"/><path class="cls-2" d="M403.62,457.15a29.18,29.18,0,0,1,50.08-30"/><path class="cls-2" d="M437.28,437l16.42-9.83a29.18,29.18,0,1,1-50.08,30l16.64-10"/><circle class="cls-2" cx="428.66" cy="442.16" r="9.36"/><circle class="cls-2" cx="428.66" cy="442.16" r="4.68"/><path class="cls-2" d="M523.62,457.15a29.18,29.18,0,0,1,50.08-30"/><path class="cls-2" d="M557.28,437l16.42-9.83a29.18,29.18,0,1,1-50.08,30l16.64-10"/><circle class="cls-2" cx="548.66" cy="442.16" r="9.36"/><circle class="cls-2" cx="548.66" cy="442.16" r="4.68"/><path class="cls-2" d="M-25.21,555.45a29.19,29.19,0,0,1,10.05-40,29.19,29.19,0,0,1,40,10.06"/><path class="cls-2" d="M8.45,535.3l16.42-9.83a29.18,29.18,0,0,1-10,40,29.18,29.18,0,0,1-40-10l16.64-10"/><circle class="cls-2" cx="-0.17" cy="540.46" r="9.36"/><circle class="cls-2" cx="-0.17" cy="540.46" r="4.68"/><path class="cls-2" d="M94.79,555.45a29.18,29.18,0,1,1,50.08-30"/><path class="cls-2" d="M128.45,535.3l16.42-9.83a29.18,29.18,0,0,1-50.08,30l16.64-10"/><circle class="cls-2" cx="119.83" cy="540.46" r="9.36"/><circle class="cls-2" cx="119.83" cy="540.46" r="4.68"/><path class="cls-2" d="M214.79,555.45a29.18,29.18,0,1,1,50.08-30"/><path class="cls-2" d="M248.45,535.3l16.42-9.83a29.18,29.18,0,1,1-50.08,30l16.64-10"/><circle class="cls-2" cx="239.83" cy="540.46" r="9.36"/><circle class="cls-2" cx="239.83" cy="540.46" r="4.68"/><path class="cls-2" d="M334.79,555.45a29.18,29.18,0,1,1,50.08-30"/><path class="cls-2" d="M368.45,535.3l16.42-9.83a29.18,29.18,0,1,1-50.08,30l16.64-10"/><circle class="cls-2" cx="359.83" cy="540.46" r="9.36"/><circle class="cls-2" cx="359.83" cy="540.46" r="4.68"/><path class="cls-2" d="M454.79,555.45a29.18,29.18,0,1,1,50.08-30"/><path class="cls-2" d="M488.45,535.3l16.42-9.83a29.18,29.18,0,1,1-50.08,30l16.64-10"/><circle class="cls-2" cx="479.83" cy="540.46" r="9.36"/><circle class="cls-2" cx="479.83" cy="540.46" r="4.68"/><path class="cls-2" d="M26,653.74a29.19,29.19,0,1,1,50.09-30"/><path class="cls-2" d="M59.62,633.6l16.43-9.83a29.19,29.19,0,1,1-50.09,30l16.64-10"/><circle class="cls-2" cx="51" cy="638.76" r="9.36"/><circle class="cls-2" cx="51" cy="638.76" r="4.68"/><path class="cls-2" d="M146,653.74a29.19,29.19,0,1,1,50.09-30"/><path class="cls-2" d="M179.62,633.6l16.43-9.83a29.19,29.19,0,1,1-50.09,30l16.64-10"/><circle class="cls-2" cx="171" cy="638.76" r="9.36"/><circle class="cls-2" cx="171" cy="638.76" r="4.68"/><path class="cls-2" d="M266,653.74a29.19,29.19,0,1,1,50.09-30"/><path class="cls-2" d="M299.62,633.6l16.43-9.83a29.19,29.19,0,1,1-50.09,30l16.64-10"/><circle class="cls-2" cx="291" cy="638.76" r="9.36"/><circle class="cls-2" cx="291" cy="638.76" r="4.68"/><path class="cls-2" d="M386,653.74a29.19,29.19,0,1,1,50.09-30"/><path class="cls-2" d="M419.62,633.6l16.43-9.83a29.19,29.19,0,1,1-50.09,30l16.64-10"/><circle class="cls-2" cx="411" cy="638.76" r="9.36"/><circle class="cls-2" cx="411" cy="638.76" r="4.68"/><path class="cls-2" d="M-42.87,752a29.18,29.18,0,0,1,10-40,29.19,29.19,0,0,1,40,10"/><path class="cls-2" d="M-9.21,731.9l16.43-9.84a29.21,29.21,0,0,1-10.06,40,29.19,29.19,0,0,1-40-10.06l16.64-10"/><path class="cls-2" d="M77.13,752a29.19,29.19,0,0,1,50.09-30"/><path class="cls-2" d="M110.79,731.9l16.43-9.84a29.19,29.19,0,1,1-50.09,30l16.64-10"/><circle class="cls-2" cx="102.17" cy="737.05" r="9.36"/><circle class="cls-2" cx="102.17" cy="737.05" r="4.68"/><path class="cls-2" d="M197.13,752a29.19,29.19,0,0,1,50.09-30"/><path class="cls-2" d="M230.79,731.9l16.43-9.84a29.19,29.19,0,1,1-50.09,30l16.64-10"/><circle class="cls-2" cx="222.17" cy="737.05" r="9.36"/><circle class="cls-2" cx="222.17" cy="737.05" r="4.68"/><path class="cls-2" d="M317.13,752a29.19,29.19,0,0,1,50.09-30"/><path class="cls-2" d="M350.79,731.9l16.43-9.84a29.19,29.19,0,1,1-50.09,30l16.64-10"/><circle class="cls-2" cx="342.17" cy="737.05" r="9.36"/><circle class="cls-2" cx="342.17" cy="737.05" r="4.68"/><path class="cls-2" d="M8.3,850.34a29.19,29.19,0,0,1,50.09-30"/><path class="cls-2" d="M42,830.19l16.43-9.83a29.19,29.19,0,0,1-50.09,30l16.65-10"/><circle class="cls-2" cx="33.35" cy="835.35" r="9.36"/><circle class="cls-2" cx="33.35" cy="835.35" r="4.68"/><path class="cls-2" d="M128.3,850.34a29.19,29.19,0,0,1,50.09-30"/><path class="cls-2" d="M162,830.19l16.43-9.83a29.19,29.19,0,0,1-50.09,30l16.65-10"/><circle class="cls-2" cx="153.35" cy="835.35" r="9.36"/><circle class="cls-2" cx="153.35" cy="835.35" r="4.68"/><path class="cls-2" d="M248.3,850.34a29.19,29.19,0,0,1,50.09-30"/><path class="cls-2" d="M282,830.19l16.43-9.83a29.19,29.19,0,0,1-50.09,30l16.65-10"/><circle class="cls-2" cx="273.35" cy="835.35" r="9.36"/><circle class="cls-2" cx="273.35" cy="835.35" r="4.68"/><path class="cls-2" d="M59.47,948.64a29.19,29.19,0,0,1,50.09-30"/><path class="cls-2" d="M93.13,928.49l16.43-9.83a29.19,29.19,0,0,1-50.09,30l16.65-10"/><circle class="cls-2" cx="84.52" cy="933.65" r="9.36"/><circle class="cls-2" cx="84.52" cy="933.65" r="4.68"/><path class="cls-2" d="M179.47,948.64a29.19,29.19,0,0,1,50.09-30"/><path class="cls-2" d="M213.13,928.49l16.43-9.83a29.19,29.19,0,0,1-50.09,30l16.65-10"/><circle class="cls-2" cx="204.52" cy="933.65" r="9.36"/><circle class="cls-2" cx="204.52" cy="933.65" r="4.68"/><path class="cls-2" d="M-9.36,1046.94a29.19,29.19,0,0,1,50.09-30"/><path class="cls-2" d="M24.3,1026.79,40.73,1017a29.19,29.19,0,0,1-50.09,30l16.65-10"/><circle class="cls-2" cx="15.69" cy="1031.95" r="9.36"/><circle class="cls-2" cx="15.69" cy="1031.95" r="4.68"/><path class="cls-2" d="M110.64,1046.94a29.19,29.19,0,0,1,50.09-30"/><path class="cls-2" d="M144.3,1026.79l16.43-9.83a29.19,29.19,0,0,1-50.09,30l16.65-10"/><circle class="cls-2" cx="135.69" cy="1031.95" r="9.36"/><circle class="cls-2" cx="135.69" cy="1031.95" r="4.68"/><path class="cls-2" d="M919.3,64a29.18,29.18,0,1,1,50.08-30"/><path class="cls-2" d="M953,43.81,969.38,34A29.18,29.18,0,1,1,919.3,64l16.64-10"/><circle class="cls-2" cx="944.34" cy="48.97" r="9.36"/><circle class="cls-2" cx="944.34" cy="48.97" r="4.68"/><path class="cls-2" d="M1039.3,64a29.18,29.18,0,1,1,50.08-30"/><path class="cls-2" d="M1073,43.81,1089.38,34a29.18,29.18,0,0,1-50.08,30l16.64-10"/><circle class="cls-2" cx="1064.34" cy="48.97" r="9.36"/><circle class="cls-2" cx="1064.34" cy="48.97" r="4.68"/><path class="cls-2" d="M850.47,162.25a29.18,29.18,0,0,1,50.08-30"/><path class="cls-2" d="M884.12,142.11l16.43-9.84a29.18,29.18,0,1,1-50.08,30l16.64-10"/><circle class="cls-2" cx="875.51" cy="147.26" r="9.36"/><circle class="cls-2" cx="875.51" cy="147.26" r="4.68"/><path class="cls-2" d="M970.47,162.25a29.18,29.18,0,1,1,50.08-30"/><path class="cls-2" d="M1004.12,142.11l16.43-9.84a29.18,29.18,0,1,1-50.08,30l16.64-10"/><circle class="cls-2" cx="995.51" cy="147.26" r="9.36"/><circle class="cls-2" cx="995.51" cy="147.26" r="4.68"/><path class="cls-2" d="M781.64,260.55a29.18,29.18,0,0,1,50.08-30"/><path class="cls-2" d="M815.3,240.4l16.42-9.83a29.18,29.18,0,1,1-50.08,30l16.64-10"/><circle class="cls-2" cx="806.68" cy="245.56" r="9.36"/><circle class="cls-2" cx="806.68" cy="245.56" r="4.68"/><path class="cls-2" d="M901.64,260.55a29.18,29.18,0,0,1,50.08-30"/><path class="cls-2" d="M935.3,240.4l16.42-9.83a29.18,29.18,0,1,1-50.08,30l16.64-10"/><circle class="cls-2" cx="926.68" cy="245.56" r="9.36"/><circle class="cls-2" cx="926.68" cy="245.56" r="4.68"/><path class="cls-2" d="M1021.64,260.55a29.18,29.18,0,1,1,50.08-30"/><path class="cls-2" d="M1055.3,240.4l16.42-9.83a29.18,29.18,0,0,1-50.08,30l16.64-10"/><circle class="cls-2" cx="1046.68" cy="245.56" r="9.36"/><circle class="cls-2" cx="1046.68" cy="245.56" r="4.68"/><path class="cls-2" d="M712.81,358.85a29.18,29.18,0,0,1,50.08-30"/><path class="cls-2" d="M746.47,338.7l16.42-9.83a29.18,29.18,0,1,1-50.08,30l16.64-10"/><circle class="cls-2" cx="737.85" cy="343.86" r="9.36"/><circle class="cls-2" cx="737.85" cy="343.86" r="4.68"/><path class="cls-2" d="M832.81,358.85a29.18,29.18,0,0,1,50.08-30"/><path class="cls-2" d="M866.47,338.7l16.42-9.83a29.18,29.18,0,1,1-50.08,30l16.64-10"/><circle class="cls-2" cx="857.85" cy="343.86" r="9.36"/><circle class="cls-2" cx="857.85" cy="343.86" r="4.68"/><path class="cls-2" d="M952.81,358.85a29.18,29.18,0,1,1,50.08-30"/><path class="cls-2" d="M986.47,338.7l16.42-9.83a29.18,29.18,0,0,1-50.08,30l16.64-10"/><circle class="cls-2" cx="977.85" cy="343.86" r="9.36"/><circle class="cls-2" cx="977.85" cy="343.86" r="4.68"/><path class="cls-2" d="M1072.81,358.85a29.18,29.18,0,1,1,50.08-30"/><path class="cls-2" d="M1106.47,338.7l16.42-9.83a29.18,29.18,0,0,1-50.08,30l16.64-10"/><path class="cls-2" d="M644,457.15a29.18,29.18,0,0,1,50.08-30"/><path class="cls-2" d="M677.64,437l16.42-9.83a29.18,29.18,0,1,1-50.08,30l16.64-10"/><circle class="cls-2" cx="669.02" cy="442.16" r="9.36"/><circle class="cls-2" cx="669.02" cy="442.16" r="4.68"/><path class="cls-2" d="M764,457.15a29.18,29.18,0,0,1,50.08-30"/><path class="cls-2" d="M797.64,437l16.42-9.83a29.18,29.18,0,1,1-50.08,30l16.64-10"/><circle class="cls-2" cx="789.02" cy="442.16" r="9.36"/><circle class="cls-2" cx="789.02" cy="442.16" r="4.68"/><path class="cls-2" d="M884,457.15a29.18,29.18,0,0,1,50.08-30"/><path class="cls-2" d="M917.64,437l16.42-9.83a29.18,29.18,0,1,1-50.08,30l16.64-10"/><circle class="cls-2" cx="909.02" cy="442.16" r="9.36"/><circle class="cls-2" cx="909.02" cy="442.16" r="4.68"/><path class="cls-2" d="M1004,457.15a29.18,29.18,0,1,1,50.08-30"/><path class="cls-2" d="M1037.64,437l16.42-9.83a29.18,29.18,0,0,1-50.08,30l16.64-10"/><circle class="cls-2" cx="1029.02" cy="442.16" r="9.36"/><circle class="cls-2" cx="1029.02" cy="442.16" r="4.68"/><path class="cls-2" d="M575.15,555.45a29.18,29.18,0,1,1,50.08-30"/><path class="cls-2" d="M608.81,535.3l16.42-9.83a29.18,29.18,0,1,1-50.08,30l16.64-10"/><circle class="cls-2" cx="600.19" cy="540.46" r="9.36"/><circle class="cls-2" cx="600.19" cy="540.46" r="4.68"/><path class="cls-2" d="M695.15,555.45a29.18,29.18,0,1,1,50.08-30"/><path class="cls-2" d="M728.81,535.3l16.42-9.83a29.18,29.18,0,1,1-50.08,30l16.64-10"/><circle class="cls-2" cx="720.19" cy="540.46" r="9.36"/><circle class="cls-2" cx="720.19" cy="540.46" r="4.68"/><path class="cls-2" d="M815.15,555.45a29.18,29.18,0,1,1,50.08-30"/><path class="cls-2" d="M848.81,535.3l16.42-9.83a29.18,29.18,0,1,1-50.08,30l16.64-10"/><circle class="cls-2" cx="840.19" cy="540.46" r="9.36"/><circle class="cls-2" cx="840.19" cy="540.46" r="4.68"/><path class="cls-2" d="M935.15,555.45a29.18,29.18,0,1,1,50.08-30"/><path class="cls-2" d="M968.81,535.3l16.42-9.83a29.18,29.18,0,0,1-50.08,30l16.64-10"/><circle class="cls-2" cx="960.19" cy="540.46" r="9.36"/><circle class="cls-2" cx="960.19" cy="540.46" r="4.68"/><path class="cls-2" d="M1055.15,555.45a29.18,29.18,0,1,1,50.08-30"/><path class="cls-2" d="M1088.81,535.3l16.42-9.83a29.18,29.18,0,0,1-50.08,30l16.64-10"/><circle class="cls-2" cx="1080.19" cy="540.46" r="9.36"/><circle class="cls-2" cx="1080.19" cy="540.46" r="4.68"/><path class="cls-2" d="M506.32,653.74a29.18,29.18,0,1,1,50.08-30"/><path class="cls-2" d="M540,633.6l16.42-9.83a29.18,29.18,0,1,1-50.08,30l16.64-10"/><circle class="cls-2" cx="531.36" cy="638.76" r="9.36"/><circle class="cls-2" cx="531.36" cy="638.76" r="4.68"/><path class="cls-2" d="M626.32,653.74a29.18,29.18,0,1,1,50.08-30"/><path class="cls-2" d="M660,633.6l16.42-9.83a29.18,29.18,0,1,1-50.08,30l16.64-10"/><circle class="cls-2" cx="651.36" cy="638.76" r="9.36"/><circle class="cls-2" cx="651.36" cy="638.76" r="4.68"/><path class="cls-2" d="M746.32,653.74a29.18,29.18,0,1,1,50.08-30"/><path class="cls-2" d="M780,633.6l16.42-9.83a29.18,29.18,0,1,1-50.08,30l16.64-10"/><circle class="cls-2" cx="771.36" cy="638.76" r="9.36"/><circle class="cls-2" cx="771.36" cy="638.76" r="4.68"/><path class="cls-2" d="M866.32,653.74a29.18,29.18,0,1,1,50.08-30"/><path class="cls-2" d="M900,633.6l16.42-9.83a29.18,29.18,0,1,1-50.08,30l16.64-10"/><circle class="cls-2" cx="891.36" cy="638.76" r="9.36"/><circle class="cls-2" cx="891.36" cy="638.76" r="4.68"/><path class="cls-2" d="M986.32,653.74a29.18,29.18,0,1,1,50.08-30"/><path class="cls-2" d="M1020,633.6l16.42-9.83a29.18,29.18,0,1,1-50.08,30l16.64-10"/><circle class="cls-2" cx="1011.36" cy="638.76" r="9.36"/><circle class="cls-2" cx="1011.36" cy="638.76" r="4.68"/><path class="cls-2" d="M437.49,752a29.19,29.19,0,0,1,50.09-30"/><path class="cls-2" d="M471.15,731.9l16.43-9.84a29.19,29.19,0,1,1-50.09,30l16.64-10"/><circle class="cls-2" cx="462.53" cy="737.05" r="9.36"/><circle class="cls-2" cx="462.53" cy="737.05" r="4.68"/><path class="cls-2" d="M557.49,752a29.19,29.19,0,0,1,50.09-30"/><path class="cls-2" d="M591.15,731.9l16.43-9.84a29.19,29.19,0,1,1-50.09,30l16.64-10"/><circle class="cls-2" cx="582.53" cy="737.05" r="9.36"/><circle class="cls-2" cx="582.53" cy="737.05" r="4.68"/><path class="cls-2" d="M677.49,752a29.19,29.19,0,0,1,50.09-30"/><path class="cls-2" d="M711.15,731.9l16.43-9.84a29.19,29.19,0,1,1-50.09,30l16.64-10"/><circle class="cls-2" cx="702.53" cy="737.05" r="9.36"/><circle class="cls-2" cx="702.53" cy="737.05" r="4.68"/><path class="cls-2" d="M797.49,752a29.19,29.19,0,0,1,50.09-30"/><path class="cls-2" d="M831.15,731.9l16.43-9.84a29.19,29.19,0,1,1-50.09,30l16.64-10"/><circle class="cls-2" cx="822.53" cy="737.05" r="9.36"/><circle class="cls-2" cx="822.53" cy="737.05" r="4.68"/><path class="cls-2" d="M917.49,752a29.19,29.19,0,0,1,50.09-30"/><path class="cls-2" d="M951.15,731.9l16.43-9.84a29.19,29.19,0,1,1-50.09,30l16.64-10"/><circle class="cls-2" cx="942.53" cy="737.05" r="9.36"/><circle class="cls-2" cx="942.53" cy="737.05" r="4.68"/><path class="cls-2" d="M1037.49,752a29.19,29.19,0,0,1,50.09-30"/><path class="cls-2" d="M1071.15,731.9l16.43-9.84a29.19,29.19,0,1,1-50.09,30l16.64-10"/><circle class="cls-2" cx="1062.53" cy="737.05" r="9.36"/><circle class="cls-2" cx="1062.53" cy="737.05" r="4.68"/><path class="cls-2" d="M368.66,850.34a29.19,29.19,0,0,1,50.09-30"/><path class="cls-2" d="M402.32,830.19l16.43-9.83a29.19,29.19,0,0,1-50.09,30l16.64-10"/><circle class="cls-2" cx="393.7" cy="835.35" r="9.36"/><circle class="cls-2" cx="393.7" cy="835.35" r="4.68"/><path class="cls-2" d="M488.66,850.34a29.19,29.19,0,0,1,50.09-30"/><path class="cls-2" d="M522.32,830.19l16.43-9.83a29.19,29.19,0,0,1-50.09,30l16.64-10"/><circle class="cls-2" cx="513.7" cy="835.35" r="9.36"/><circle class="cls-2" cx="513.7" cy="835.35" r="4.68"/><path class="cls-2" d="M608.66,850.34a29.19,29.19,0,0,1,50.09-30"/><path class="cls-2" d="M642.32,830.19l16.43-9.83a29.19,29.19,0,0,1-50.09,30l16.64-10"/><circle class="cls-2" cx="633.7" cy="835.35" r="9.36"/><circle class="cls-2" cx="633.7" cy="835.35" r="4.68"/><path class="cls-2" d="M728.66,850.34a29.19,29.19,0,0,1,50.09-30"/><path class="cls-2" d="M762.32,830.19l16.43-9.83a29.19,29.19,0,0,1-50.09,30l16.64-10"/><circle class="cls-2" cx="753.7" cy="835.35" r="9.36"/><circle class="cls-2" cx="753.7" cy="835.35" r="4.68"/><path class="cls-2" d="M848.66,850.34a29.19,29.19,0,0,1,50.09-30"/><path class="cls-2" d="M882.32,830.19l16.43-9.83a29.19,29.19,0,0,1-50.09,30l16.64-10"/><circle class="cls-2" cx="873.7" cy="835.35" r="9.36"/><circle class="cls-2" cx="873.7" cy="835.35" r="4.68"/><path class="cls-2" d="M968.66,850.34a29.19,29.19,0,0,1,50.09-30"/><path class="cls-2" d="M1002.32,830.19l16.43-9.83a29.19,29.19,0,0,1-50.09,30l16.64-10"/><circle class="cls-2" cx="993.7" cy="835.35" r="9.36"/><circle class="cls-2" cx="993.7" cy="835.35" r="4.68"/><path class="cls-2" d="M299.83,948.64a29.19,29.19,0,0,1,50.09-30"/><path class="cls-2" d="M333.49,928.49l16.43-9.83a29.19,29.19,0,0,1-50.09,30l16.65-10"/><circle class="cls-2" cx="324.88" cy="933.65" r="9.36"/><circle class="cls-2" cx="324.88" cy="933.65" r="4.68"/><path class="cls-2" d="M419.83,948.64a29.19,29.19,0,0,1,50.09-30"/><path class="cls-2" d="M453.49,928.49l16.43-9.83a29.19,29.19,0,0,1-50.09,30l16.65-10"/><circle class="cls-2" cx="444.88" cy="933.65" r="9.36"/><circle class="cls-2" cx="444.88" cy="933.65" r="4.68"/><path class="cls-2" d="M539.83,948.64a29.19,29.19,0,0,1,50.09-30"/><path class="cls-2" d="M573.49,928.49l16.43-9.83a29.19,29.19,0,0,1-50.09,30l16.65-10"/><circle class="cls-2" cx="564.88" cy="933.65" r="9.36"/><circle class="cls-2" cx="564.88" cy="933.65" r="4.68"/><path class="cls-2" d="M659.83,948.64a29.19,29.19,0,0,1,50.09-30"/><path class="cls-2" d="M693.49,928.49l16.43-9.83a29.19,29.19,0,0,1-50.09,30l16.65-10"/><circle class="cls-2" cx="684.88" cy="933.65" r="9.36"/><circle class="cls-2" cx="684.88" cy="933.65" r="4.68"/><path class="cls-2" d="M779.83,948.64a29.19,29.19,0,0,1,50.09-30"/><path class="cls-2" d="M813.49,928.49l16.43-9.83a29.19,29.19,0,0,1-50.09,30l16.65-10"/><circle class="cls-2" cx="804.88" cy="933.65" r="9.36"/><circle class="cls-2" cx="804.88" cy="933.65" r="4.68"/><path class="cls-2" d="M899.83,948.64a29.19,29.19,0,0,1,50.09-30"/><path class="cls-2" d="M933.49,928.49l16.43-9.83a29.19,29.19,0,0,1-50.09,30l16.65-10"/><circle class="cls-2" cx="924.88" cy="933.65" r="9.36"/><circle class="cls-2" cx="924.88" cy="933.65" r="4.68"/><path class="cls-2" d="M1019.83,948.64a29.19,29.19,0,0,1,50.09-30"/><path class="cls-2" d="M1053.49,928.49l16.43-9.83a29.19,29.19,0,0,1-50.09,30l16.65-10"/><circle class="cls-2" cx="1044.88" cy="933.65" r="9.36"/><circle class="cls-2" cx="1044.88" cy="933.65" r="4.68"/><path class="cls-2" d="M231,1046.94a29.19,29.19,0,0,1,50.09-30"/><path class="cls-2" d="M264.66,1026.79l16.43-9.83a29.19,29.19,0,0,1-50.09,30l16.65-10"/><circle class="cls-2" cx="256.05" cy="1031.95" r="9.36"/><circle class="cls-2" cx="256.05" cy="1031.95" r="4.68"/><path class="cls-2" d="M351,1046.94a29.19,29.19,0,0,1,50.09-30"/><path class="cls-2" d="M384.66,1026.79l16.43-9.83a29.19,29.19,0,0,1-50.09,30l16.65-10"/><circle class="cls-2" cx="376.05" cy="1031.95" r="9.36"/><circle class="cls-2" cx="376.05" cy="1031.95" r="4.68"/><path class="cls-2" d="M471,1046.94a29.19,29.19,0,0,1,50.09-30"/><path class="cls-2" d="M504.66,1026.79l16.43-9.83a29.19,29.19,0,0,1-50.09,30l16.65-10"/><circle class="cls-2" cx="496.05" cy="1031.95" r="9.36"/><circle class="cls-2" cx="496.05" cy="1031.95" r="4.68"/><path class="cls-2" d="M591,1046.94a29.19,29.19,0,0,1,50.09-30"/><path class="cls-2" d="M624.66,1026.79l16.43-9.83a29.19,29.19,0,0,1-50.09,30l16.65-10"/><circle class="cls-2" cx="616.05" cy="1031.95" r="9.36"/><circle class="cls-2" cx="616.05" cy="1031.95" r="4.68"/><path class="cls-2" d="M711,1046.94a29.19,29.19,0,0,1,50.09-30"/><path class="cls-2" d="M744.66,1026.79l16.43-9.83a29.19,29.19,0,0,1-50.09,30l16.65-10"/><circle class="cls-2" cx="736.05" cy="1031.95" r="9.36"/><circle class="cls-2" cx="736.05" cy="1031.95" r="4.68"/><path class="cls-2" d="M831,1046.94a29.19,29.19,0,0,1,50.09-30"/><path class="cls-2" d="M864.66,1026.79l16.43-9.83a29.19,29.19,0,0,1-50.09,30l16.65-10"/><circle class="cls-2" cx="856.05" cy="1031.95" r="9.36"/><circle class="cls-2" cx="856.05" cy="1031.95" r="4.68"/><path class="cls-2" d="M951,1046.94a29.19,29.19,0,0,1,50.09-30"/><path class="cls-2" d="M984.66,1026.79l16.43-9.83a29.19,29.19,0,0,1-50.09,30l16.65-10"/><circle class="cls-2" cx="976.05" cy="1031.95" r="9.36"/><circle class="cls-2" cx="976.05" cy="1031.95" r="4.68"/><path class="cls-2" d="M1071,1046.94a29.19,29.19,0,0,1,50.09-30"/><path class="cls-2" d="M1104.66,1026.79l16.43-9.83a29.19,29.19,0,0,1-50.09,30l16.65-10"/></g></svg>