<svg id="Camada_1" data-name="Camada 1" xmlns="http://www.w3.org/2000/svg" viewBox="0 0 508 483"><defs><style>.cls-1{opacity:0.2;}</style></defs><g class="cls-1"><path d="M337.37,229.68c-3.41-26.57-15.71-47.05-37.44-61.14-15.69-10.16-33-15-52.16-12.82-29.39,3.41-51.12,18.1-65,43.87-4.25,7.9-6.24,17.08-8.68,25.84-.91,3.25-2.05,4.31-5.31,4.3q-56.75-.12-113.51,0c-3.72,0-5.06-1-4.82-4.81a210.49,210.49,0,0,1,9.28-49.84A203.22,203.22,0,0,1,99.22,104c24.31-28.51,54.32-48.71,89.61-61,16.7-5.84,33.93-8.76,51.67-10.17A203.37,203.37,0,0,1,417,110.59c22.34,28.7,36.66,60.79,41.45,97,.78,5.91,1.44,11.84,2.27,17.75.53,3.76-1.32,4.45-4.61,4.44-21.5-.1-43-.06-64.51-.06H337.37Z"/><path d="M50.08,245.83h6q56,0,112,0c3.59,0,5.41.42,6.22,4.83,5.05,27.63,20.07,48.49,45.38,60.66,27.52,13.23,55,11.5,80.77-5.09,21.19-13.64,33.63-34.62,36.92-60.1,1.51-.08,3.12-.25,4.72-.25,37.66,0,75.32,0,113-.08,4.48,0,6.4.64,5.14,5.88s-1.05,10.88-1.81,16.29c-5.58,39.79-22.07,74.53-48.33,104.85a201.87,201.87,0,0,1-76.2,54.89,199.29,199.29,0,0,1-67.32,14.86,222,222,0,0,1-41.61-1.81c-32-4.46-61.24-16.52-87.65-35.09A204.2,204.2,0,0,1,68.47,323a188.24,188.24,0,0,1-16.41-58.36C51.39,258.57,50.78,252.53,50.08,245.83Z"/><path d="M255.71,174.9c35.41-2.29,60.42,31.26,62.73,56.76,3.56,39.3-30.86,71.66-67.12,69.13-28.51-2-58-26.35-59.07-61.57C191.15,203.73,222.47,172.07,255.71,174.9Z"/></g></svg>